<svg width="185" height="185" viewBox="0 0 185 185" fill="none" xmlns="http://www.w3.org/2000/svg">
<path d="M54.6923 55.9336C47.2878 51.6586 44.7554 42.2074 49.0303 34.8029C53.3053 27.3984 62.7565 24.8659 70.1611 29.1409C77.5656 33.4159 80.098 42.8671 75.823 50.2716C71.548 57.6761 62.0968 60.2086 54.6923 55.9336ZM65.9423 36.448C62.581 34.5074 58.2781 35.6604 56.3374 39.0216C54.3968 42.3829 55.5498 46.6859 58.9111 48.6265C62.2723 50.5671 66.5753 49.4141 68.5159 46.0529C70.4565 42.6916 69.3036 38.3886 65.9423 36.448Z" fill="#F1BCAE"/>
<path d="M142.377 106.559C134.973 102.284 132.44 92.8324 136.715 85.4279C140.99 78.0234 150.442 75.4909 157.846 79.7659C165.251 84.0409 167.783 93.4921 163.508 100.897C159.233 108.301 149.782 110.834 142.377 106.559ZM153.627 87.073C150.266 85.1324 145.963 86.2854 144.022 89.6466C142.082 93.0079 143.235 97.3109 146.596 99.2515C149.957 101.192 154.26 100.039 156.201 96.6779C158.142 93.3166 156.989 89.0136 153.627 87.073Z" fill="#F1BCAE"/>
<path d="M138.26 91.1908L118.774 79.9408C116.777 78.7877 116.077 76.1751 117.23 74.1779C118.383 72.1806 120.995 71.4806 122.993 72.6337L142.478 83.8837C144.476 85.0368 145.176 87.6493 144.022 89.6466C142.869 91.6439 140.257 92.3439 138.26 91.1908Z" fill="#F1BCAE"/>
<path d="M89.5456 63.0658L70.0601 51.8158C68.0628 50.6627 67.3628 48.0501 68.5159 46.0529C69.669 44.0556 72.2816 43.3556 74.2788 44.5087L93.7644 55.7587C95.7617 56.9118 96.4617 59.5243 95.3086 61.5216C94.1554 63.5189 91.5429 64.2189 89.5456 63.0658Z" fill="#F1BCAE"/>
<path d="M38.369 117.956L28.6262 112.331C22.5857 108.844 20.5062 101.083 23.9937 95.0426L29.6187 85.2999C33.1062 79.2593 40.8669 77.1798 46.9074 80.6673L56.6502 86.2923C62.6907 89.7798 64.7702 97.5406 61.2827 103.581L55.6577 113.324C53.1265 117.708 48.2945 120.115 43.3156 119.514C41.6347 119.388 39.9278 118.856 38.369 117.956ZM42.6887 87.9744C40.6914 86.8213 38.0789 87.5213 36.9258 89.5186L31.3008 99.2614C30.1476 101.259 30.8477 103.871 32.8449 105.024L42.5877 110.649C43.0749 110.931 43.5694 111.087 44.1971 111.124C45.9474 111.355 47.535 110.518 48.3506 109.105L53.9756 99.3623C55.1288 97.3651 54.4287 94.7526 52.4315 93.5994L42.6887 87.9744Z" fill="#F1BCAE"/>
<path d="M106.568 157.331L96.8257 151.706C95.2668 150.806 93.9535 149.594 92.8858 148.068C89.9655 144.239 89.6619 138.802 92.1932 134.418L97.8182 124.675C101.306 118.634 109.066 116.555 115.107 120.042L124.85 125.667C130.89 129.155 132.97 136.916 129.482 142.956L123.857 152.699C120.37 158.739 112.609 160.819 106.568 157.331ZM110.888 127.349C108.891 126.196 106.278 126.896 105.125 128.894L99.5003 138.636C98.6846 140.049 98.7533 141.843 99.7105 143.11C100.175 143.768 100.557 144.118 101.044 144.399L110.787 150.024C112.784 151.177 115.397 150.477 116.55 148.48L122.175 138.737C123.328 136.74 122.628 134.128 120.631 132.974L110.888 127.349Z" fill="#F1BCAE"/>
<path d="M103.029 90.3362L88.4152 81.8987C82.3747 78.4112 80.2952 70.6505 83.7827 64.61L92.2202 49.9958C95.7077 43.9553 103.468 41.8758 109.509 45.3633L124.123 53.8008C130.164 57.2883 132.243 65.049 128.756 71.0895L120.318 85.7037C116.831 91.7442 109.07 93.8237 103.029 90.3362ZM105.29 52.6704C103.293 51.5172 100.68 52.2173 99.5273 54.2145L91.0898 68.8287C89.9367 70.826 90.6367 73.4385 92.634 74.5916L107.248 83.0291C109.245 84.1823 111.858 83.4822 113.011 81.485L121.449 66.8708C122.602 64.8735 121.902 62.261 119.904 61.1079L105.29 52.6704Z" fill="#F1BCAE"/>
<path d="M115.612 130.077C115.466 129.993 115.32 129.908 115.174 129.824C113.317 128.427 112.896 125.781 114.293 123.925C114.784 123.299 115.15 122.665 115.544 121.983C122.856 109.318 122.738 93.6606 115.212 82.1708C113.944 80.2046 114.478 77.5908 116.445 76.3228C118.411 75.0548 121.025 75.5896 122.293 77.5558C131.523 91.7184 131.738 110.808 122.851 126.202C122.288 127.176 121.705 128.074 120.997 128.964C119.81 130.682 117.463 131.146 115.612 130.077Z" fill="#F1BCAE"/>
<path d="M47.7062 90.8713C45.8551 89.8026 45.0838 87.5384 45.9577 85.5748C46.4228 84.5443 46.8597 83.5626 47.4222 82.5883C56.3097 67.1947 72.9497 57.8359 89.83 58.7483C92.1668 58.8633 93.937 60.8598 93.8219 63.1965C93.7069 65.5333 91.7105 67.3036 89.3737 67.1886C75.6603 66.4159 62.0417 74.1415 54.7292 86.8071C54.3355 87.4891 54.0185 88.1506 53.6734 88.8608C52.7639 90.9987 50.262 91.9571 48.1241 91.0476C47.9985 91.04 47.8524 90.9557 47.7062 90.8713Z" fill="#F1BCAE"/>
</svg>
