<svg width="135" height="135" viewBox="0 0 135 135" fill="none" xmlns="http://www.w3.org/2000/svg">
<path d="M67.4991 127.969C66.1491 127.969 64.7992 127.8 63.5054 127.407C34.3117 119.363 13.1616 92.0815 13.1616 62.494V37.8002C13.1616 31.5002 17.7179 24.6942 23.5679 22.2754L54.8992 9.45027C63.0554 6.13152 71.9991 6.13152 80.0991 9.45027L111.43 22.2754C117.28 24.6942 121.837 31.5002 121.837 37.8002V62.494C121.837 92.0252 100.63 119.307 71.4928 127.407C70.1991 127.8 68.8491 127.969 67.4991 127.969ZM67.4991 15.4691C64.2929 15.4691 61.1428 16.0879 58.1053 17.3254L26.7742 30.1502C24.0742 31.2752 21.5991 34.9315 21.5991 37.8565V62.5503C21.5991 88.369 40.1617 112.219 65.7554 119.307C66.8804 119.644 68.1179 119.644 69.2429 119.307C94.8366 112.219 113.399 88.369 113.399 62.5503V37.8565C113.399 34.9315 110.924 31.2752 108.224 30.1502L76.893 17.3254C73.8555 16.0879 70.7054 15.4691 67.4991 15.4691Z" fill="#F1BCAE"/>
<path d="M67.5 74.5312C58.95 74.5312 52.0312 67.6125 52.0312 59.0625C52.0312 50.5125 58.95 43.5938 67.5 43.5938C76.05 43.5938 82.9688 50.5125 82.9688 59.0625C82.9688 67.6125 76.05 74.5312 67.5 74.5312ZM67.5 52.0312C63.6187 52.0312 60.4688 55.1812 60.4688 59.0625C60.4688 62.9438 63.6187 66.0938 67.5 66.0938C71.3813 66.0938 74.5312 62.9438 74.5312 59.0625C74.5312 55.1812 71.3813 52.0312 67.5 52.0312Z" fill="#F1BCAE"/>
<path d="M67.5 91.4062C65.1938 91.4062 63.2812 89.4937 63.2812 87.1875V70.3125C63.2812 68.0063 65.1938 66.0938 67.5 66.0938C69.8063 66.0938 71.7188 68.0063 71.7188 70.3125V87.1875C71.7188 89.4937 69.8063 91.4062 67.5 91.4062Z" fill="#F1BCAE"/>
</svg>
