<svg width="135" height="135" viewBox="0 0 135 135" fill="none" xmlns="http://www.w3.org/2000/svg">
<path d="M111.206 77.3438H88.4812C77.175 77.3438 71.7188 72.1125 71.7188 61.3125V23.0625C71.7188 12.2625 77.2312 7.03125 88.4812 7.03125H111.206C122.513 7.03125 127.969 12.2625 127.969 23.0625V61.3125C127.969 72.1125 122.456 77.3438 111.206 77.3438ZM88.4812 15.4688C81.3375 15.4688 80.1562 17.3812 80.1562 23.0625V61.3125C80.1562 66.9937 81.3375 68.9062 88.4812 68.9062H111.206C118.35 68.9062 119.531 66.9937 119.531 61.3125V23.0625C119.531 17.3812 118.35 15.4688 111.206 15.4688H88.4812Z" fill="#F1BCAE"/>
<path d="M111.206 127.969H88.4812C77.175 127.969 71.7188 122.737 71.7188 111.937V101.813C71.7188 91.0125 77.2312 85.7812 88.4812 85.7812H111.206C122.513 85.7812 127.969 91.0125 127.969 101.813V111.937C127.969 122.737 122.456 127.969 111.206 127.969ZM88.4812 94.2188C81.3375 94.2188 80.1562 96.1313 80.1562 101.813V111.937C80.1562 117.619 81.3375 119.531 88.4812 119.531H111.206C118.35 119.531 119.531 117.619 119.531 111.937V101.813C119.531 96.1313 118.35 94.2188 111.206 94.2188H88.4812Z" fill="#F1BCAE"/>
<path d="M46.5188 127.969H23.7938C12.4875 127.969 7.03125 122.737 7.03125 111.937V73.6875C7.03125 62.8875 12.5438 57.6562 23.7938 57.6562H46.5188C57.825 57.6562 63.2812 62.8875 63.2812 73.6875V111.937C63.2812 122.737 57.7688 127.969 46.5188 127.969ZM23.7938 66.0938C16.65 66.0938 15.4688 68.0063 15.4688 73.6875V111.937C15.4688 117.619 16.65 119.531 23.7938 119.531H46.5188C53.6625 119.531 54.8438 117.619 54.8438 111.937V73.6875C54.8438 68.0063 53.6625 66.0938 46.5188 66.0938H23.7938Z" fill="#F1BCAE"/>
<path d="M46.5188 49.2188H23.7938C12.4875 49.2188 7.03125 43.9875 7.03125 33.1875V23.0625C7.03125 12.2625 12.5438 7.03125 23.7938 7.03125H46.5188C57.825 7.03125 63.2812 12.2625 63.2812 23.0625V33.1875C63.2812 43.9875 57.7688 49.2188 46.5188 49.2188ZM23.7938 15.4688C16.65 15.4688 15.4688 17.3812 15.4688 23.0625V33.1875C15.4688 38.8687 16.65 40.7812 23.7938 40.7812H46.5188C53.6625 40.7812 54.8438 38.8687 54.8438 33.1875V23.0625C54.8438 17.3812 53.6625 15.4688 46.5188 15.4688H23.7938Z" fill="#F1BCAE"/>
</svg>
