<svg width="135" height="135" viewBox="0 0 135 135" fill="none" xmlns="http://www.w3.org/2000/svg">
<path d="M56.25 99.5625H34.9312C13.5563 99.5625 7.03125 93.0375 7.03125 71.6625V37.9125C7.03125 16.5375 13.5563 10.0125 34.9312 10.0125H94.1625C115.537 10.0125 122.063 16.5375 122.063 37.9125C122.063 40.2188 120.15 42.1313 117.844 42.1313C115.538 42.1313 113.625 40.2188 113.625 37.9125C113.625 21.375 110.7 18.45 94.1625 18.45H34.9312C18.3938 18.45 15.4688 21.375 15.4688 37.9125V71.6625C15.4688 88.2 18.3938 91.125 34.9312 91.125H56.25C58.5563 91.125 60.4688 93.0375 60.4688 95.3438C60.4688 97.65 58.5563 99.5625 56.25 99.5625Z" fill="#F1BCAE"/>
<path d="M56.25 124.987C53.9438 124.987 52.0312 123.075 52.0312 120.769V95.2875C52.0312 92.9813 53.9438 91.0688 56.25 91.0688C58.5563 91.0688 60.4688 92.9813 60.4688 95.2875V120.769C60.4688 123.131 58.5563 124.987 56.25 124.987Z" fill="#F1BCAE"/>
<path d="M56.25 77.0625H11.25C8.94375 77.0625 7.03125 75.15 7.03125 72.8438C7.03125 70.5375 8.94375 68.625 11.25 68.625H56.25C58.5563 68.625 60.4688 70.5375 60.4688 72.8438C60.4688 75.15 58.5563 77.0625 56.25 77.0625Z" fill="#F1BCAE"/>
<path d="M56.25 124.987H37.9125C35.6062 124.987 33.6937 123.075 33.6937 120.769C33.6937 118.462 35.6062 116.55 37.9125 116.55H56.25C58.5562 116.55 60.4687 118.462 60.4687 120.769C60.4687 123.075 58.5562 124.987 56.25 124.987Z" fill="#F1BCAE"/>
<path d="M107.1 124.988H87.1313C71.55 124.988 66.2625 119.7 66.2625 104.119V72C66.2625 56.4188 71.55 51.1313 87.1313 51.1313H107.1C122.681 51.1313 127.969 56.4188 127.969 72V104.119C127.969 119.756 122.681 124.988 107.1 124.988ZM87.1313 59.5688C76.1063 59.5688 74.7 60.975 74.7 72V104.119C74.7 115.144 76.1063 116.55 87.1313 116.55H107.1C118.125 116.55 119.531 115.144 119.531 104.119V72C119.531 60.975 118.125 59.5688 107.1 59.5688H87.1313Z" fill="#F1BCAE"/>
<path d="M97.3125 106.706C95.85 106.706 94.3875 106.144 93.3188 105.075C92.8125 104.569 92.4187 103.95 92.1375 103.275C91.8562 102.544 91.6875 101.812 91.6875 101.081C91.6875 99.6187 92.3063 98.1562 93.3188 97.1437C94.6125 95.85 96.5813 95.2312 98.4375 95.5687C98.775 95.6812 99.1125 95.7937 99.45 95.9062C99.7875 96.075 100.125 96.2437 100.406 96.4125C100.744 96.6375 101.025 96.8625 101.306 97.1437C102.319 98.1562 102.938 99.6187 102.938 101.081C102.938 101.812 102.769 102.544 102.488 103.275C102.206 103.95 101.813 104.569 101.306 105.075C101.025 105.356 100.744 105.581 100.406 105.75C100.125 105.975 99.7875 106.144 99.45 106.312C99.1125 106.425 98.775 106.538 98.4375 106.594C98.0438 106.706 97.7063 106.706 97.3125 106.706Z" fill="#F1BCAE"/>
</svg>
